PathFileType  4	(X/Y/Z) C:\Users\antoi\Documents\MyRepositories\mobilecap\ResultsAnalysis
DataRate	CameraRate	NumFrames	NumMarkers	Units	OrigDataRate	OrigDataStartFrame	OrigNumFrames
100.0	100.0	6	51	mm	100.0	1	216
Frame#	Time	r_knee			r_shank_antsup			r_ankle			r_calc			r_5meta			r_toe			L_knee			L_shank_antsup			L_ankle			L_calc			L_5meta			L_toe			r_sh2			r_sh3			r_sh4			L_sh2			L_sh3			r_thigh1			r_thigh2			r_thigh3			r_thigh4			r_thigh5			L_thigh1			L_thigh2			L_thigh3			L_thigh4			r.ASIS			r.PSIS			L.ASIS			L.PSIS			C7			R_Shoulder			L_Shoulder			R_Sternum			L_Sternum			R_humerus			R_elbow_med			R_elbow_lat			R_forearm			R_wrist_radius			R_wrist_ulna			L_humerus			L_elbow_med			L_elbow_lat			L_forearm			L_wrist_radius			L_wrist_ulna			R_HJC			L_HJC			R_HJC_reg			L_HJC_reg			
		X1	Y1	Z1	X2	Y2	Z2	X3	Y3	Z3	X4	Y4	Z4	X5	Y5	Z5	X6	Y6	Z6	X7	Y7	Z7	X8	Y8	Z8	X9	Y9	Z9	X10	Y10	Z10	X11	Y11	Z11	X12	Y12	Z12	X13	Y13	Z13	X14	Y14	Z14	X15	Y15	Z15	X16	Y16	Z16	X17	Y17	Z17	X18	Y18	Z18	X19	Y19	Z19	X20	Y20	Z20	X21	Y21	Z21	X22	Y22	Z22	X23	Y23	Z23	X24	Y24	Z24	X25	Y25	Z25	X26	Y26	Z26	X27	Y27	Z27	X28	Y28	Z28	X29	Y29	Z29	X30	Y30	Z30	X31	Y31	Z31	X32	Y32	Z32	X33	Y33	Z33	X34	Y34	Z34	X35	Y35	Z35	X36	Y36	Z36	X37	Y37	Z37	X38	Y38	Z38	X39	Y39	Z39	X40	Y40	Z40	X41	Y41	Z41	X42	Y42	Z42	X43	Y43	Z43	X44	Y44	Z44	X45	Y45	Z45	X46	Y46	Z46	X47	Y47	Z47	X48	Y48	Z48	X49	Y49	Z49	X50	Y50	Z50	X51	Y51	Z51	

1	0.00000000	-1110.17580	795.10027	-461.50376	-1077.34344	718.38805	-479.18449	-1214.59961	405.36023	-469.92790	-1287.42634	371.04501	-500.17768	-1111.07837	355.20353	-440.17341	-1067.78955	383.47292	-497.78242	-1129.11857	797.37528	-740.69706	-1105.06161	702.26200	-739.04260	-1210.81042	405.39244	-714.08574	-1278.09242	370.95594	-675.41663	-1103.72058	353.40471	-753.77605	-1065.05433	376.55837	-697.50091	-1121.60938	615.14074	-452.70231	-1146.67023	747.86106	-445.11073	-1188.68431	644.32201	-437.61080	-1190.62335	724.67274	-750.02064	-1208.72758	603.56314	-756.79672	-1101.87537	1115.77167	-435.35909	-1086.93371	1003.27330	-441.19501	-1139.26770	971.03464	-415.25455	-1212.74940	1098.03976	-422.05790	-1192.98784	982.15367	-428.27049	-1118.84617	1066.37674	-801.44538	-1097.62886	933.56559	-768.66113	-1232.16336	1049.84057	-774.79451	-1203.81614	914.27726	-757.20193	-1092.85426	1258.81465	-480.76294	-1269.78530	1333.79581	-568.11566	-1081.67286	1245.32734	-730.28863	-1269.94475	1338.42422	-669.91152	-1164.51453	1739.07677	-628.79296	-1071.81734	1679.48009	-450.84961	-1085.97291	1690.16953	-802.61532	-1034.27826	1673.83816	-604.51367	-1031.02168	1671.71539	-645.50400	-1080.47105	1541.10216	-390.27247	-1170.74979	1341.45809	-429.81637	-1142.04936	1350.79248	-363.34362	-1070.16221	1228.38894	-368.77224	-1037.06024	1096.62781	-382.24704	-1056.72514	1089.28624	-352.02886	-1080.78490	1567.29987	-856.67307	-1164.02944	1343.61106	-795.28088	-1125.21237	1355.34720	-864.23169	-1062.76998	1258.81954	-844.07426	-1030.80865	1104.87119	-833.36141	-1051.29822	1099.18165	-858.16416	-1185.01720	1196.42706	-507.07282	-1176.00569	1191.34486	-713.28435	-1173.18845	1189.97534	-518.27540	-1173.44678	1197.47392	-683.19720	
2	0.01000000	-1109.41012	794.94769	-461.09019	-1076.71756	718.09753	-479.10815	-1214.50459	405.41058	-469.82795	-1287.59314	370.82941	-500.08718	-1111.09746	355.19258	-440.17183	-1067.81636	383.49244	-497.83426	-1128.28782	797.31931	-740.68522	-1104.32520	702.00931	-738.76472	-1210.83662	405.38702	-714.02719	-1278.12597	370.96358	-675.51655	-1103.78185	353.51610	-753.87380	-1065.11208	376.71296	-697.52777	-1121.10911	615.21529	-452.60136	-1145.78991	747.52627	-445.04020	-1188.46074	644.50620	-437.30199	-1189.73835	724.79573	-750.02337	-1208.21184	603.48845	-756.80321	-1101.47602	1115.59232	-435.06046	-1086.69397	1003.32233	-440.68737	-1138.56213	970.84594	-415.12429	-1212.08420	1097.86937	-421.86439	-1192.22999	981.92709	-428.04027	-1117.98118	1066.23018	-801.29471	-1096.78294	933.48657	-768.68153	-1231.41308	1049.47756	-774.10888	-1203.09615	913.91224	-756.61723	-1092.12910	1258.38822	-480.59819	-1268.82252	1333.74783	-567.76823	-1080.99454	1244.76553	-729.73865	-1268.76458	1338.33734	-669.54932	-1162.47074	1738.84443	-628.30502	-1069.76087	1678.89916	-450.51158	-1083.95504	1689.91033	-802.16698	-1032.32460	1673.14248	-604.21168	-1029.58911	1671.08515	-645.08653	-1078.74240	1540.52161	-389.81706	-1170.63754	1342.18742	-428.16105	-1140.71447	1350.41563	-362.94930	-1069.30684	1227.90930	-368.52600	-1036.60808	1096.03845	-382.18819	-1056.21137	1088.84963	-351.86309	-1079.22867	1566.99448	-856.12590	-1162.84966	1343.59098	-795.32515	-1124.21194	1355.11731	-863.82431	-1061.92407	1258.48420	-843.85229	-1030.38757	1104.50213	-833.33114	-1050.70621	1099.00276	-858.01609	-1184.40775	1196.20519	-506.67952	-1175.38886	1191.01830	-712.88810	-1172.72413	1189.80281	-518.19031	-1172.63136	1197.22839	-682.86493	
3	0.02000000	-1108.73315	794.75272	-460.78693	-1076.14104	717.79503	-479.01097	-1214.46785	405.42002	-469.78088	-1287.52599	370.73064	-499.97937	-1111.12787	355.18331	-440.17912	-1067.83031	383.48727	-497.82015	-1127.34247	797.20066	-740.65006	-1103.54538	701.76613	-738.57970	-1210.88730	405.43962	-714.00293	-1278.15334	370.93889	-675.52623	-1103.87735	353.61428	-753.70928	-1065.16500	376.87216	-697.47002	-1120.76401	615.10917	-452.44013	-1145.11721	747.21060	-445.08933	-1188.12839	644.34704	-437.15148	-1188.81500	724.87268	-750.09415	-1207.47798	603.55410	-756.75038	-1100.94877	1115.51200	-434.80463	-1085.93601	1002.95400	-440.86763	-1137.85121	970.67469	-414.97947	-1211.42331	1097.63829	-421.57698	-1191.48891	981.67563	-427.88534	-1117.13757	1066.10783	-801.09566	-1095.94930	933.39135	-768.53221	-1230.54996	1049.29994	-773.97078	-1202.32513	913.53024	-756.04464	-1091.21320	1257.97948	-480.22758	-1267.84212	1333.76988	-567.57953	-1080.04404	1244.44959	-729.41464	-1267.70645	1338.42003	-669.15282	-1160.26185	1738.55082	-627.71048	-1067.60943	1678.27574	-450.09837	-1081.88454	1689.66664	-801.73198	-1030.20754	1672.67219	-603.66102	-1027.25203	1670.85858	-644.63756	-1076.97844	1539.88550	-389.46888	-1169.71689	1342.30436	-427.54530	-1139.39147	1349.98324	-362.66508	-1068.40256	1227.28163	-368.47687	-1036.01660	1095.40317	-382.18397	-1055.64722	1088.38818	-351.73913	-1077.52416	1566.77748	-855.80444	-1161.80435	1343.67540	-795.48162	-1123.10621	1355.00913	-863.62089	-1061.04283	1258.21553	-843.73456	-1029.86348	1104.07435	-833.33882	-1049.99167	1098.83097	-858.06362	-1183.66880	1196.01688	-506.40586	-1174.58119	1190.90392	-712.61319	-1171.98728	1189.52952	-517.93083	-1171.76794	1197.06992	-682.62855	
4	0.03000000	-1108.04278	794.42621	-460.73949	-1075.55902	717.48367	-478.96721	-1214.47693	405.41331	-469.80055	-1287.45821	370.71741	-499.94685	-1111.13787	355.20730	-440.20671	-1067.82795	383.49752	-497.79930	-1126.34351	796.97726	-740.42046	-1102.72924	701.47795	-738.43664	-1210.94009	405.53920	-714.01936	-1278.12974	370.91321	-675.51216	-1103.96118	353.68784	-753.44381	-1065.19821	377.01345	-697.35905	-1120.47087	614.83190	-452.35066	-1144.58995	746.98772	-445.12197	-1187.60701	643.97675	-437.15844	-1187.93375	724.84332	-750.11867	-1206.80437	603.62634	-756.57555	-1100.23020	1115.36724	-434.68021	-1084.82875	1002.29253	-441.39040	-1137.10259	970.43160	-414.84902	-1210.71741	1097.33976	-421.35227	-1190.75756	981.38527	-427.74778	-1116.27756	1065.97968	-800.84874	-1095.02078	933.12678	-768.15479	-1229.58334	1049.23376	-774.17354	-1201.41893	913.26125	-755.76883	-1090.19177	1257.62706	-479.72583	-1266.78393	1333.85290	-567.38984	-1079.04921	1244.25123	-729.14393	-1266.66602	1338.60809	-668.85921	-1157.84012	1738.17555	-627.07170	-1065.31046	1677.67097	-449.56342	-1079.68751	1689.34387	-801.13052	-1027.74957	1672.41004	-602.78581	-1022.82254	1672.04068	-643.82879	-1075.11461	1539.20187	-389.16523	-1168.13405	1341.76130	-427.75148	-1138.09624	1349.56622	-362.36073	-1067.43128	1226.59611	-368.46223	-1035.27982	1094.71291	-382.17090	-1055.02369	1087.78635	-351.77735	-1075.65070	1566.53272	-855.64284	-1160.65588	1343.75957	-795.61440	-1121.86493	1354.99627	-863.59970	-1060.03986	1258.00115	-843.66786	-1029.21758	1103.60623	-833.29801	-1049.16806	1098.60428	-858.13938	-1182.87235	1195.90343	-506.14796	-1173.70377	1190.88497	-712.35403	-1171.11770	1189.25223	-517.51933	-1170.92607	1196.97682	-682.35469	
5	0.04000000	-1107.25391	794.01407	-460.92524	-1074.91394	717.17570	-478.97212	-1214.44866	405.44806	-469.85960	-1287.55762	370.75318	-500.03058	-1111.11970	355.26067	-440.24194	-1067.82706	383.54876	-497.84315	-1125.36252	796.72774	-740.04955	-1101.89597	701.14380	-738.26813	-1210.96806	405.62230	-714.03195	-1278.07543	370.93385	-675.55767	-1104.00547	353.74768	-753.29825	-1065.22013	377.12055	-697.27399	-1119.98401	614.57071	-452.37672	-1143.87558	746.64945	-445.09852	-1186.99593	643.76611	-437.13693	-1187.10363	724.72409	-750.03155	-1206.42796	603.55243	-756.26615	-1099.27678	1115.01874	-434.54524	-1083.87497	1001.76317	-441.61064	-1136.32221	970.11492	-414.68191	-1209.90651	1097.04749	-421.22620	-1190.00338	981.12196	-427.52136	-1115.37407	1065.76689	-800.50551	-1093.96505	932.72156	-767.69222	-1228.62101	1049.11031	-774.16921	-1200.39351	913.09399	-755.82073	-1089.25703	1257.31255	-479.27476	-1265.62986	1333.97091	-567.12005	-1078.24220	1243.91679	-728.72065	-1265.52355	1338.75920	-668.72891	-1155.24345	1737.75973	-626.44968	-1062.85242	1677.09805	-448.98919	-1077.29607	1688.94283	-800.34287	-1025.10596	1671.79543	-602.27304	-1018.16521	1673.18643	-642.95561	-1073.10415	1538.51458	-388.80329	-1166.48577	1341.01707	-427.95245	-1136.77533	1349.15143	-362.00939	-1066.36061	1225.97429	-368.27387	-1034.48560	1094.00943	-382.09624	-1054.33923	1087.06615	-351.90783	-1073.65117	1566.21761	-855.40719	-1159.20223	1343.66155	-795.49285	-1120.49154	1354.93105	-863.54179	-1058.90495	1257.75063	-843.55784	-1028.48450	1103.19172	-833.21709	-1048.32506	1098.26792	-857.95817	-1182.16495	1195.85642	-505.80608	-1172.92991	1190.75801	-712.00723	-1170.36803	1189.10118	-517.07152	-1170.19536	1196.86953	-681.92022	
6	0.05000000	-1106.43671	793.73819	-461.01451	-1074.24510	716.87769	-478.93966	-1214.35716	405.47760	-469.90341	-1287.66978	370.81372	-500.13566	-1111.11512	355.28721	-440.25970	-1067.84759	383.60258	-497.91593	-1124.35428	796.54824	-739.78656	-1101.07236	700.83957	-738.06987	-1210.98549	405.66199	-714.00505	-1278.06510	370.97617	-675.61680	-1104.04768	353.80573	-753.22452	-1065.25560	377.20874	-697.21789	-1119.36365	614.41568	-452.37629	-1143.05077	746.35694	-445.08002	-1186.42119	643.79222	-436.96063	-1186.24978	724.59186	-749.87098	-1206.08675	603.39837	-755.93941	-1098.19889	1114.68421	-434.22796	-1083.20083	1001.53217	-441.41124	-1135.53615	969.84709	-414.43674	-1209.03146	1096.81408	-420.98009	-1189.20220	980.92817	-427.22582	-1114.42779	1065.46362	-800.05856	-1092.91329	932.42746	-767.29054	-1227.68335	1048.88251	-773.92366	-1199.35940	912.84705	-755.80595	-1088.40511	1256.91072	-478.91779	-1264.43647	1334.11384	-566.87359	-1077.46394	1243.42872	-728.26789	-1264.26636	1338.85415	-668.51937	-1152.51908	1737.38380	-625.78239	-1060.25114	1676.45495	-448.44028	-1074.67958	1688.56223	-799.63756	-1022.55624	1670.54665	-602.54991	-1016.30799	1671.89733	-642.53267	-1070.95248	1537.82410	-388.37005	-1164.89992	1340.43247	-427.77059	-1135.33273	1348.61768	-361.71434	-1065.18010	1225.34632	-367.99198	-1033.65436	1093.29981	-381.99223	-1053.55938	1086.36804	-351.92574	-1071.50653	1565.91961	-855.01285	-1157.63341	1343.44406	-795.14990	-1118.99830	1354.75474	-863.38636	-1057.69731	1257.39720	-843.42404	-1027.65120	1102.84929	-833.16936	-1047.45013	1097.90617	-857.65906	-1181.51992	1195.76545	-505.45024	-1172.22399	1190.54572	-711.64570	-1169.76632	1189.01159	-516.70801	-1169.49072	1196.69672	-681.49810	
